<svg width="20" height="20" viewBox="0 0 20 20" fill="none" xmlns="http://www.w3.org/2000/svg">
<path d="M9.99999 13.9982C12.2091 13.9982 14 12.2074 14 9.99824C14 7.7891 12.2091 5.99824 9.99999 5.99824C7.79085 5.99824 5.99999 7.7891 5.99999 9.99824C5.99999 12.2074 7.79085 13.9982 9.99999 13.9982Z" fill="white"/>
<path d="M9.99999 6.00001H16.927C16.2251 4.78381 15.2153 3.77385 13.9993 3.07168C12.7832 2.36952 11.4037 1.9999 9.99946 2C8.59523 2.0001 7.21577 2.36991 5.9998 3.07224C4.78383 3.77457 3.7742 4.78467 3.07243 6.00098L6.53596 12L6.53906 11.9992C6.18673 11.3916 6.0008 10.7019 6.00001 9.99956C5.99922 9.29721 6.1836 8.60708 6.53456 7.99871C6.88553 7.39034 7.39068 6.88525 7.99908 6.53435C8.60749 6.18345 9.29765 5.99914 9.99999 6.00001Z" fill="#F61D1A"/>
<path d="M9.99999 13.1667C11.7489 13.1667 13.1667 11.7489 13.1667 10C13.1667 8.25111 11.7489 6.83334 9.99999 6.83334C8.25109 6.83334 6.83333 8.25111 6.83333 10C6.83333 11.7489 8.25109 13.1667 9.99999 13.1667Z" fill="#0075F0"/>
<path d="M13.4638 12.001L10.0002 18C11.4044 18.0002 12.784 17.6307 14.0001 16.9286C15.2162 16.2265 16.2261 15.2166 16.9281 14.0005C17.6301 12.7843 17.9996 11.4048 17.9993 10.0006C17.9991 8.59635 17.6291 7.21694 16.9266 6.00104H9.99962L9.99879 6.00414C10.7011 6.00279 11.3914 6.18662 12.0001 6.5371C12.6087 6.88759 13.1142 7.39234 13.4656 8.00047C13.817 8.6086 14.0018 9.29862 14.0015 10.001C14.0012 10.7033 13.8157 11.3932 13.4638 12.001Z" fill="#FFBD00"/>
<path d="M6.53619 12.001L3.07267 6.00201C2.37037 7.21801 2.00061 8.59748 2.00056 10.0017C2.00051 11.4059 2.37017 12.7854 3.07237 14.0015C3.77457 15.2175 4.78456 16.2273 6.00078 16.9292C7.21701 17.6311 8.59659 18.0004 10.0008 18L13.4644 12.001L13.4621 11.9987C13.1121 12.6076 12.6078 13.1135 11.9999 13.4654C11.392 13.8172 10.7022 14.0026 9.99983 14.0028C9.29749 14.0031 8.60749 13.8182 7.9994 13.4667C7.39131 13.1153 6.88661 12.6097 6.53619 12.001Z" fill="#00A341"/>
</svg>
