<svg width="34" height="34" viewBox="0 0 34 34" fill="none" xmlns="http://www.w3.org/2000/svg">
<mask id="path-1-inside-1_8680_18385" fill="white">
<path d="M0 8C0 3.58172 3.58172 0 8 0H26C30.4183 0 34 3.58172 34 8V26C34 30.4183 30.4183 34 26 34H8C3.58172 34 0 30.4183 0 26V8Z"/>
</mask>
<path d="M0 8C0 3.58172 3.58172 0 8 0H26C30.4183 0 34 3.58172 34 8V26C34 30.4183 30.4183 34 26 34H8C3.58172 34 0 30.4183 0 26V8Z" fill="white"/>
<path d="M0 8C0 3.58172 3.58172 0 8 0H26C30.4183 0 34 3.58172 34 8V26C34 30.4183 30.4183 34 26 34H8C3.58172 34 0 30.4183 0 26V8Z" fill="url(#paint0_linear_8680_18385)"/>
<path d="M8 0V1H26V0V-1H8V0ZM34 8H33V26H34H35V8H34ZM26 34V33H8V34V35H26V34ZM0 26H1V8H0H-1V26H0ZM8 34V33C4.13401 33 1 29.866 1 26H0H-1C-1 30.9706 3.02944 35 8 35V34ZM34 26H33C33 29.866 29.866 33 26 33V34V35C30.9706 35 35 30.9706 35 26H34ZM26 0V1C29.866 1 33 4.13401 33 8H34H35C35 3.02944 30.9706 -1 26 -1V0ZM8 0V-1C3.02944 -1 -1 3.02944 -1 8H0H1C1 4.13401 4.13401 1 8 1V0Z" fill="black" fill-opacity="0.02" mask="url(#path-1-inside-1_8680_18385)"/>
<path fill-rule="evenodd" clip-rule="evenodd" d="M8.60628 10.15L14.617 16.1633C15.928 17.4718 18.0709 17.4729 19.383 16.1633L25.3937 10.15C25.4542 10.0895 25.4454 9.98977 25.3752 9.9408C24.7621 9.51324 24.0162 9.25977 23.2127 9.25977H10.7873C9.98377 9.25977 9.23786 9.51328 8.62479 9.9408C8.55457 9.98977 8.54575 10.0895 8.60628 10.15ZM7 13.047C7 12.4152 7.15666 11.8182 7.4326 11.2935C7.47575 11.2114 7.58512 11.1948 7.6507 11.2604L13.5853 17.195C15.4646 19.077 18.5342 19.0781 20.4147 17.195L26.3493 11.2604C26.4149 11.1948 26.5243 11.2114 26.5674 11.2935C26.8433 11.8182 27 12.4152 27 13.047V20.9531C27 23.043 25.3 24.7404 23.2127 24.7404H10.7873C8.70005 24.7404 7 23.043 7 20.9531V13.047Z" fill="black"/>
<defs>
<linearGradient id="paint0_linear_8680_18385" x1="17" y1="0" x2="17" y2="34" gradientUnits="userSpaceOnUse">
<stop stop-color="#EFEFEF"/>
<stop offset="1" stop-color="#EFEFEF" stop-opacity="0"/>
</linearGradient>
</defs>
</svg>
